<svg xmlns="http://www.w3.org/2000/svg" viewBox="0 0 64 64" width="64" height="64">
  <!-- ECE MAKAUT Short Notes — Full-Bleed Edge-to-Edge Squircle Favicon -->
  <!-- Maximized viewBox for standard browser tab visibility (16x16 / 32x32) -->

  <!-- Full-Bleed Squircle Base (Pastel Butter Yellow with High-Contrast Ink Border) -->
  <rect x="1.5" y="1.5" width="61" height="61" rx="15" fill="#FFF388" stroke="#16181F" stroke-width="3" />

  <!-- IC Chip Semiconductor Leads (Thickened for 16px tab legibility) -->
  <path d="M22 6v10 M32 6v10 M42 6v10 M22 48v10 M32 48v10 M42 48v10 M6 22h10 M6 32h10 M6 42h10 M48 22h10 M48 32h10 M48 42h10" 
        stroke="#16181F" stroke-width="3.2" stroke-linecap="round" />

  <!-- Central IC Microchip Body (Crisp Paper White) -->
  <rect x="16" y="16" width="32" height="32" rx="5" fill="#FFFFFF" stroke="#16181F" stroke-width="3" />

  <!-- RF Sine Communication Signal & Network Node -->
  <path d="M21 32 c3 -7, 6 -7, 11 0 s 8 7, 11 0" 
        fill="none" stroke="#16181F" stroke-width="3.2" stroke-linecap="round" />
  <circle cx="32" cy="32" r="3.2" fill="#16181F" />
</svg>
